<svg width="379" height="458" viewBox="0 0 379 458" fill="none" xmlns="http://www.w3.org/2000/svg">
<path d="M1.5 0H221.5L240.5 3L257.5 8L273.5 16L287.5 26L302.5 41L309.5 51L317.5 65L322.5 75L336.5 84L351.5 92L366.5 101L369 102.5L366.5 104L339.5 120L328.5 126L326.5 127L323.5 142L318.5 157L310.5 173L300.5 187L297.5 190V192L313.5 198L328.5 206L341.5 216L352.5 227L362.5 241L370.5 257L375.5 272L378.5 290V316L375.5 334L370.5 351L362.5 369L354.5 382L345.5 394L336.5 404L323.5 417L306.5 430L290.5 439L275.5 446L249.5 454L231.5 457L219.5 458H24.5V277L310.5 276L308.5 270L306.5 265.5L303.5 261L299 256L289.5 249L279.5 244L267.5 241L260.5 240L24.5 239L28.5 236.5L50.5 225L99.5 199L138.5 180L147.5 175L148.5 174L149 173L149.5 172V171V169.5V168L149 166L148.5 164.5L147.5 163L127.5 159L104.5 153L84.5 145L66.5 135L52.5 124L41.5 114L34.5 106L23.5 91L13.5 73L5.5 52L2.5 40L0.5 24V1V0H1.5ZM240.5 65L236 66L232.5 68L229 71.5L226.5 75L225.5 78.5L225 82.5L225.5 86L226.5 89L228.5 92L230.5 94.5L233 96.5L238.5 99L243 99.5L247.5 99L252 97L255.5 94L257.5 91.5L259.5 88L260.5 84V80L259.5 76.5L257.5 73L255.5 70.5L252.5 68L249 66L245.5 65H240.5Z" fill="url(#paint0_linear_1_4)"/>
<defs>
<linearGradient id="paint0_linear_1_4" x1="115.5" y1="37.5" x2="224.5" y2="389" gradientUnits="userSpaceOnUse">
<stop stop-color="#5FD9FF"/>
<stop offset="1" stop-color="#F086FF"/>
</linearGradient>
</defs>
</svg>
