<svg xmlns="http://www.w3.org/2000/svg" viewBox="0 0 264 175.67" fill="none" role="img" aria-label="Bioby">
  <defs>
    <linearGradient id="i" gradientUnits="objectBoundingBox" x1="0" y1="0.5" x2="1" y2="0.5">
      <stop stop-color="#5FD9FF"/>
      <stop offset="0.5" stop-color="#A78BFA"/>
      <stop offset="1" stop-color="#F086FF"/>
    </linearGradient>
  </defs>
  <g transform="matrix(0.773,0,0,0.773,1.13,19.23)">
    <path fill="url(#i)" transform="matrix(1,0,0,-1,226.45,119.671)" d="M0 0C-5.705-5.706-14.614-6.305-20.992-1.799-21.743-1.272-22.458-.672-23.13 0L-38.902 15.771-38.732 15.941 2.308 56.987C12.247 66.92 28.412 66.92 38.351 56.987L47.667 47.672ZM104.236 47.739 66.672 85.302C42.221 109.753 3.095 110.807-22.622 88.458-23.778 87.458-24.911 86.404-26.013 85.302L-67.053 44.262-67.223 44.092-67.532 44.401-137.583 114.453-137.801 114.671-138.062 114.411-165.995 86.471-166.116 86.35-95.538 15.771-95.847 15.469-105.786 5.53C-106.894 4.421-108.081 3.446-109.335 2.604-117.269-2.744-127.729-2.804-135.718 2.422-137.075 3.307-138.358 4.342-139.545 5.53L-193.135 59.119-193.202 59.052-221.45 30.798-167.86-22.792C-162.016-28.636-155.311-33.106-148.152-36.213-147.952-36.298-147.752-36.383-147.546-36.467-131.66-43.16-113.593-43.154-97.712-36.437-97.512-36.358-97.313-36.273-97.112-36.183-89.972-33.082-83.291-28.618-77.465-22.792L-67.526-12.853-67.223-12.543-51.451-28.321C-50.397-29.375-49.313-30.375-48.199-31.325-37.685-40.319-24.626-44.813-11.568-44.813-2.531-44.813 6.511-42.657 14.706-38.357 14.894-38.254 15.075-38.157 15.263-38.054 19.03-36.025 22.604-33.53 25.917-30.581 26.734-29.86 27.534-29.103 28.315-28.321L104.302 47.672Z"/>
  </g>
</svg>
